<svg width="16" height="16" viewBox="0 0 16 16" fill="none" xmlns="http://www.w3.org/2000/svg">
<rect width="16" height="16" rx="2" fill="#F59E0B"/>
<path d="M8.86495 3.75501L9.74495 5.51501C9.86495 5.76001 10.185 5.99501 10.455 6.04001L12.05 6.30501C13.07 6.47501 13.31 7.21501 12.575 7.94501L11.335 9.18501C11.125 9.39501 11.01 9.80001 11.075 10.09L11.43 11.625C11.71 12.84 11.065 13.31 9.98995 12.675L8.49495 11.79C8.22495 11.63 7.77995 11.63 7.50495 11.79L6.00995 12.675C4.93995 13.31 4.28995 12.835 4.56995 11.625L4.92495 10.09C4.98995 9.80001 4.87495 9.39501 4.66495 9.18501L3.42495 7.94501C2.69495 7.21501 2.92995 6.47501 3.94995 6.30501L5.54495 6.04001C5.80995 5.99501 6.12995 5.76001 6.24995 5.51501L7.12995 3.75501C7.60995 2.80001 8.38995 2.80001 8.86495 3.75501Z" fill="white"/>
</svg>
